<svg width="83" height="33" viewBox="0 0 83 33" fill="none" xmlns="http://www.w3.org/2000/svg">
<g filter="url(#filter0_d_1_8)">
<path d="M16.7305 11.8359C16.4414 10.9531 16.1367 10.1406 15.8164 9.39844C15.4961 8.64844 15.1797 7.97656 14.8672 7.38281C14.5625 6.78125 14.2695 6.25781 13.9883 5.8125C13.7148 5.35938 13.4805 4.98828 13.2852 4.69922C12.5586 5.93359 11.9062 7.14062 11.3281 8.32031C10.7578 9.49219 10.25 10.6641 9.80469 11.8359C10.4297 11.9062 11.0312 11.9648 11.6094 12.0117C12.1875 12.0508 12.7617 12.0703 13.332 12.0703C13.8945 12.0703 14.4531 12.0508 15.0078 12.0117C15.5703 11.9648 16.1445 11.9062 16.7305 11.8359ZM24.7227 18.2695C24.707 18.2695 24.6914 18.2656 24.6758 18.2578C24.6602 18.2578 24.6445 18.25 24.6289 18.2344C23.918 18.125 23.2148 18.0469 22.5195 18C21.832 17.9531 21.1445 17.9297 20.457 17.9297C19.7773 17.9297 19.1055 17.9531 18.4414 18C17.7852 18.0469 17.1289 18.125 16.4727 18.2344C16.457 18.25 16.4414 18.2578 16.4258 18.2578C16.4102 18.2656 16.3945 18.2695 16.3789 18.2695C16.207 18.2695 16.0586 18.2031 15.9336 18.0703C15.8164 17.9375 15.7578 17.793 15.7578 17.6367C15.7578 17.4961 15.8047 17.3672 15.8984 17.25C16 17.1328 16.1289 17.0625 16.2852 17.0391C16.5977 16.9766 16.9141 16.9297 17.2344 16.8984C17.5547 16.8594 17.8828 16.8203 18.2188 16.7812C18.1797 16.6328 18.1328 16.4492 18.0781 16.2305C18.0234 16.0039 17.9492 15.7383 17.8555 15.4336C17.7695 15.1289 17.6641 14.7773 17.5391 14.3789C17.4219 13.9727 17.2812 13.5156 17.1172 13.0078C16.4531 13.1016 15.8125 13.1758 15.1953 13.2305C14.5781 13.2773 13.957 13.3008 13.332 13.3008C12.6992 13.3008 12.0586 13.2773 11.4102 13.2305C10.7617 13.1758 10.082 13.1016 9.37109 13.0078C8.95703 14.2422 8.62109 15.4648 8.36328 16.6758C8.84766 16.6914 9.33203 16.7305 9.81641 16.793C10.3086 16.8477 10.8086 16.9297 11.3164 17.0391C11.457 17.0625 11.5703 17.1328 11.6562 17.25C11.75 17.3672 11.7969 17.4961 11.7969 17.6367C11.7969 17.8164 11.7266 17.9648 11.5859 18.082C11.4531 18.207 11.3125 18.2695 11.1641 18.2695C11.1406 18.2695 11.1211 18.2617 11.1055 18.2461C11.0898 18.2383 11.0703 18.2344 11.0469 18.2344C10.5312 18.125 10.0234 18.043 9.52344 17.9883C9.03125 17.9336 8.53906 17.9062 8.04688 17.9062C7.5625 17.9062 7.08594 17.9336 6.61719 17.9883C6.14844 18.043 5.67188 18.125 5.1875 18.2344C5.16406 18.2344 5.14453 18.2383 5.12891 18.2461C5.11328 18.2617 5.09375 18.2695 5.07031 18.2695C4.89062 18.2695 4.74219 18.207 4.625 18.082C4.50781 17.957 4.44922 17.8086 4.44922 17.6367C4.44922 17.4961 4.49219 17.3711 4.57812 17.2617C4.66406 17.1523 4.78125 17.0781 4.92969 17.0391C5.28125 16.9531 5.63281 16.8867 5.98438 16.8398C6.34375 16.793 6.71094 16.7539 7.08594 16.7227C7.35156 15.4336 7.69922 14.1445 8.12891 12.8555C8.55859 11.5664 9.07031 10.2656 9.66406 8.95312C10.2656 7.63281 10.9531 6.29297 11.7266 4.93359C12.5 3.57422 13.3711 2.17578 14.3398 0.738281C14.4102 0.644531 14.4883 0.578125 14.5742 0.539062C14.668 0.5 14.7578 0.480469 14.8438 0.480469C14.9375 0.480469 15.0273 0.5 15.1133 0.539062C15.1992 0.570313 15.2695 0.621094 15.3242 0.691406C16.9648 2.78516 18.3711 5.16016 19.543 7.81641C20.7227 10.4648 21.6914 13.4453 22.4492 16.7578C23.2461 16.8281 24.0391 16.9219 24.8281 17.0391C24.9844 17.0625 25.1094 17.1328 25.2031 17.25C25.3047 17.3672 25.3555 17.4961 25.3555 17.6367C25.3555 17.8086 25.2852 17.957 25.1445 18.082C25.0117 18.207 24.8711 18.2695 24.7227 18.2695ZM32.2461 18.1641H32.1289C31.8164 18.1094 31.5312 18.0625 31.2734 18.0234C31.0156 17.9844 30.7695 17.957 30.5352 17.9414C30.3008 17.918 30.0625 17.9023 29.8203 17.8945C29.5859 17.8867 29.332 17.8828 29.0586 17.8828C28.5039 17.8828 27.9648 17.9062 27.4414 17.9531C26.918 17.9922 26.3438 18.0703 25.7188 18.1875H25.6016C25.4062 18.1875 25.2578 18.125 25.1562 18C25.0547 17.8828 25.0039 17.7383 25.0039 17.5664C25.0039 17.4258 25.0469 17.3008 25.1328 17.1914C25.2188 17.082 25.3359 17.0078 25.4844 16.9688C25.7734 16.9219 26.0352 16.8867 26.2695 16.8633C26.5039 16.832 26.7539 16.8047 27.0195 16.7812V2.47266C26.5273 2.43359 26.1719 2.39844 25.9531 2.36719C25.7422 2.32812 25.6172 2.30859 25.5781 2.30859C25.4219 2.28516 25.293 2.21484 25.1914 2.09766C25.0977 1.98047 25.0508 1.84766 25.0508 1.69922C25.0508 1.49609 25.1211 1.34375 25.2617 1.24219C25.4023 1.13281 25.5391 1.07812 25.6719 1.07812H25.7422C25.75 1.07812 25.8203 1.08984 25.9531 1.11328C26.0859 1.12891 26.2656 1.15234 26.4922 1.18359C26.7266 1.20703 27 1.23047 27.3125 1.25391C27.6328 1.26953 27.9805 1.27734 28.3555 1.27734C28.7305 1.27734 29.0977 1.26562 29.457 1.24219C29.8164 1.21094 30.1445 1.16406 30.4414 1.10156C30.4648 1.08594 30.5078 1.07812 30.5703 1.07812C30.75 1.07812 30.8984 1.14453 31.0156 1.27734C31.1328 1.40234 31.1914 1.54297 31.1914 1.69922L31.168 16.7812C31.3008 16.7969 31.4102 16.8125 31.4961 16.8281C31.5898 16.8359 31.6758 16.8477 31.7539 16.8633C31.8398 16.8711 31.9258 16.8828 32.0117 16.8984C32.1055 16.9062 32.2227 16.9219 32.3633 16.9453C32.5117 16.9844 32.6328 17.0586 32.7266 17.168C32.8203 17.2773 32.8672 17.4023 32.8672 17.543C32.8672 17.7227 32.8008 17.8711 32.668 17.9883C32.543 18.1055 32.4023 18.1641 32.2461 18.1641ZM42.2422 13.8984C42.2266 13.7656 42.2148 13.6289 42.207 13.4883C42.1992 13.3477 42.1953 13.2031 42.1953 13.0547H41.7617C41.4492 13.0547 41.0781 13.0781 40.6484 13.125C40.2266 13.1719 39.7891 13.2461 39.3359 13.3477C38.8828 13.4492 38.4336 13.5859 37.9883 13.7578C37.543 13.9219 37.1445 14.125 36.793 14.3672C36.4414 14.6016 36.1562 14.8789 35.9375 15.1992C35.7266 15.5195 35.6211 15.8867 35.6211 16.3008C35.6211 16.5195 35.6719 16.707 35.7734 16.8633C35.8828 17.0195 36.0156 17.1484 36.1719 17.25C36.3359 17.3438 36.5156 17.4141 36.7109 17.4609C36.9062 17.5 37.0938 17.5195 37.2734 17.5195C37.8281 17.5195 38.3516 17.4141 38.8438 17.2031C39.3438 16.9844 39.8047 16.7031 40.2266 16.3594C40.6484 16.0078 41.0273 15.6172 41.3633 15.1875C41.6992 14.7578 41.9922 14.3281 42.2422 13.8984ZM47.8555 17.9531H47.8086C47.6758 17.9375 47.5391 17.9297 47.3984 17.9297C47.2578 17.9297 47.1211 17.9297 46.9883 17.9297C46.2539 17.9297 45.5469 17.9766 44.8672 18.0703C44.1953 18.1641 43.5195 18.3086 42.8398 18.5039C42.8164 18.5039 42.793 18.5078 42.7695 18.5156C42.7461 18.5234 42.7148 18.5273 42.6758 18.5273C42.4961 18.5273 42.3477 18.457 42.2305 18.3164C42.1211 18.1836 42.0664 18.0469 42.0664 17.9062V17.8125C42.0664 17.7969 42.0859 17.6406 42.125 17.3438C42.1641 17.0391 42.2031 16.6172 42.2422 16.0781C41.9062 16.4531 41.5469 16.8047 41.1641 17.1328C40.7891 17.4531 40.3906 17.7344 39.9688 17.9766C39.5547 18.2109 39.125 18.3945 38.6797 18.5273C38.2344 18.668 37.7734 18.7383 37.2969 18.7383C36.9219 18.7383 36.5586 18.6797 36.207 18.5625C35.8555 18.4531 35.543 18.293 35.2695 18.082C35.0039 17.8711 34.7891 17.6172 34.625 17.3203C34.4688 17.0156 34.3906 16.6758 34.3906 16.3008C34.3906 15.7148 34.5156 15.1992 34.7656 14.7539C35.0234 14.3086 35.3594 13.9219 35.7734 13.5938C36.1875 13.2578 36.6562 12.9805 37.1797 12.7617C37.7109 12.5352 38.25 12.3555 38.7969 12.2227C39.3438 12.082 39.875 11.9844 40.3906 11.9297C40.9062 11.8672 41.3633 11.8359 41.7617 11.8359H42.043C42.043 11.3594 41.957 10.8945 41.7852 10.4414C41.6211 9.98828 41.3867 9.58594 41.082 9.23438C40.7852 8.88281 40.4297 8.60156 40.0156 8.39062C39.6016 8.17188 39.1445 8.0625 38.6445 8.0625C38.2773 8.0625 37.918 8.16797 37.5664 8.37891C37.2148 8.58203 36.9023 8.84375 36.6289 9.16406C36.3555 9.48438 36.1328 9.84375 35.9609 10.2422C35.7969 10.6406 35.7148 11.0273 35.7148 11.4023C35.7148 11.5586 35.6484 11.6914 35.5156 11.8008C35.3906 11.9023 35.25 11.9531 35.0938 11.9531C34.9219 11.9531 34.7734 11.8906 34.6484 11.7656C34.5234 11.6328 34.4609 11.4883 34.4609 11.332C34.4609 10.957 34.5273 10.5664 34.6602 10.1602C34.793 9.74609 34.9844 9.34375 35.2344 8.95312C35.4922 8.55469 35.8008 8.17969 36.1602 7.82812C36.5273 7.47656 36.9414 7.16797 37.4023 6.90234C37.8711 6.62891 38.3828 6.41406 38.9375 6.25781C39.4922 6.10156 40.082 6.02344 40.707 6.02344C41.582 6.02344 42.3281 6.16016 42.9453 6.43359C43.5703 6.70703 44.0898 7.07812 44.5039 7.54688C44.9258 8.01562 45.2578 8.55859 45.5 9.17578C45.7422 9.79297 45.9258 10.4453 46.0508 11.1328C46.1758 11.8203 46.2539 12.5195 46.2852 13.2305C46.3242 13.9414 46.3438 14.6211 46.3438 15.2695C46.3438 15.5977 46.3398 15.8789 46.332 16.1133C46.3242 16.3477 46.3203 16.543 46.3203 16.6992C46.4375 16.6992 46.5547 16.6953 46.6719 16.6875C46.7969 16.6797 46.918 16.6758 47.0352 16.6758C47.168 16.6758 47.3047 16.6797 47.4453 16.6875C47.5938 16.6953 47.7383 16.6992 47.8789 16.6992C48.0508 16.7148 48.1875 16.7812 48.2891 16.8984C48.3984 17.0156 48.4531 17.1602 48.4531 17.332C48.4531 17.4961 48.3945 17.6406 48.2773 17.7656C48.168 17.8906 48.0273 17.9531 47.8555 17.9531ZM62.457 6.1875C62.457 6.34375 62.4023 6.48047 62.293 6.59766C62.1914 6.71484 62.0625 6.78125 61.9062 6.79688C61.7578 6.82031 61.6094 6.83984 61.4609 6.85547C61.3203 6.86328 61.1719 6.875 61.0156 6.89062C60.9609 7.10938 60.8828 7.41797 60.7812 7.81641C60.6875 8.20703 60.5742 8.65625 60.4414 9.16406C60.3086 9.67188 60.1641 10.2227 60.0078 10.8164C59.8594 11.4102 59.7031 12.0156 59.5391 12.6328C59.375 13.25 59.207 13.8633 59.0352 14.4727C58.8633 15.082 58.6953 15.6602 58.5312 16.207C58.375 16.7461 58.2227 17.2383 58.0742 17.6836C57.9336 18.1211 57.8047 18.4844 57.6875 18.7734C57.3672 19.5391 56.9844 20.2852 56.5391 21.0117C56.1016 21.7461 55.5938 22.3984 55.0156 22.9688C54.4453 23.5391 53.8047 23.9961 53.0938 24.3398C52.3828 24.6914 51.6016 24.8672 50.75 24.8672C50.2188 24.8672 49.707 24.793 49.2148 24.6445C48.7227 24.5039 48.2891 24.2891 47.9141 24C47.5391 23.7109 47.2383 23.3555 47.0117 22.9336C46.7852 22.5195 46.6719 22.0352 46.6719 21.4805C46.6719 21.1289 46.7227 20.7773 46.8242 20.4258C46.918 20.082 47.0625 19.7734 47.2578 19.5C47.4453 19.2344 47.6797 19.0156 47.9609 18.8438C48.2422 18.6797 48.5703 18.5977 48.9453 18.5977C49.2344 18.5977 49.5039 18.6523 49.7539 18.7617C50.0117 18.8711 50.2344 19.0195 50.4219 19.207C50.6094 19.3945 50.7578 19.6133 50.8672 19.8633C50.9766 20.1211 51.0312 20.3945 51.0312 20.6836C51.0312 20.9727 50.9766 21.2422 50.8672 21.4922C50.7578 21.75 50.6094 21.9727 50.4219 22.1602C50.2344 22.3555 50.0117 22.5078 49.7539 22.6172C49.5039 22.7266 49.2344 22.7812 48.9453 22.7812C48.8125 22.7812 48.6875 22.7695 48.5703 22.7461C48.4531 22.7227 48.3398 22.6914 48.2305 22.6523C48.4102 22.8789 48.6172 23.0586 48.8516 23.1914C49.0859 23.332 49.3398 23.4023 49.6133 23.4023C49.957 23.4023 50.2852 23.2969 50.5977 23.0859C50.9102 22.8828 51.2031 22.6172 51.4766 22.2891C51.7578 21.9609 52.0156 21.5938 52.25 21.1875C52.4844 20.7812 52.6953 20.375 52.8828 19.9688C53.0781 19.5625 53.2461 19.1797 53.3867 18.8203C53.5273 18.4609 53.6406 18.1641 53.7266 17.9297C53.7891 17.7578 53.8477 17.5781 53.9023 17.3906C53.9648 17.1953 54.0312 16.9922 54.1016 16.7812C53.2422 15.6094 52.5547 14.5156 52.0391 13.5C51.5234 12.4844 51.1211 11.5664 50.832 10.7461C50.5508 9.92578 50.3594 9.21484 50.2578 8.61328C50.1641 8.00391 50.1094 7.52344 50.0938 7.17188C49.7969 7.17188 49.4961 7.16797 49.1914 7.16016C48.8945 7.14453 48.5977 7.11719 48.3008 7.07812C48.1445 7.0625 48.0117 7 47.9023 6.89062C47.8008 6.77344 47.75 6.63672 47.75 6.48047C47.75 6.30859 47.8125 6.16406 47.9375 6.04688C48.0703 5.92188 48.2148 5.85938 48.3711 5.85938H48.4414C48.7148 5.89844 48.9922 5.92578 49.2734 5.94141C49.5625 5.94922 49.8555 5.95312 50.1523 5.95312C50.6055 5.95312 51.0625 5.9375 51.5234 5.90625C51.9922 5.86719 52.4688 5.80859 52.9531 5.73047C52.9844 5.71484 53.0156 5.70703 53.0469 5.70703C53.2266 5.70703 53.375 5.77344 53.4922 5.90625C53.6172 6.03906 53.6797 6.18359 53.6797 6.33984C53.6797 6.48047 53.6289 6.60938 53.5273 6.72656C53.4336 6.84375 53.3086 6.91406 53.1523 6.9375C52.832 6.98438 52.5195 7.02734 52.2148 7.06641C51.918 7.09766 51.6211 7.125 51.3242 7.14844C51.332 7.42969 51.375 7.82422 51.4531 8.33203C51.5391 8.83984 51.6953 9.44141 51.9219 10.1367C52.1562 10.832 52.4805 11.6133 52.8945 12.4805C53.3164 13.3477 53.8711 14.2852 54.5586 15.293C54.7773 14.543 54.9961 13.7578 55.2148 12.9375C55.4414 12.1094 55.6523 11.3125 55.8477 10.5469C56.0508 9.78125 56.2305 9.07812 56.3867 8.4375C56.5508 7.79688 56.6797 7.28125 56.7734 6.89062C56.6172 6.875 56.4531 6.86328 56.2812 6.85547C56.1172 6.83984 55.9531 6.82031 55.7891 6.79688C55.6328 6.78125 55.5 6.71484 55.3906 6.59766C55.2891 6.48047 55.2383 6.34375 55.2383 6.1875C55.2383 6 55.3047 5.85156 55.4375 5.74219C55.5703 5.625 55.7109 5.56641 55.8594 5.56641H55.9297C56.4141 5.62891 56.8945 5.67188 57.3711 5.69531C57.8555 5.71875 58.3438 5.73047 58.8359 5.73047C59.3203 5.73047 59.8047 5.71875 60.2891 5.69531C60.7812 5.67188 61.2734 5.62891 61.7656 5.56641H61.8359C62.0156 5.56641 62.1641 5.63281 62.2812 5.76562C62.3984 5.89062 62.457 6.03125 62.457 6.1875ZM78.5 6.38672C78.5 6.52734 78.4531 6.65625 78.3594 6.77344C78.2734 6.89062 78.1523 6.96094 77.9961 6.98438C77.7227 7.04688 77.4492 7.09766 77.1758 7.13672C76.9023 7.16797 76.6328 7.20312 76.3672 7.24219L76.1797 16.9453C76.4531 16.9453 76.7305 16.9531 77.0117 16.9688C77.3008 16.9766 77.582 17 77.8555 17.0391C78.0273 17.0547 78.1602 17.125 78.2539 17.25C78.3555 17.3672 78.4062 17.4961 78.4062 17.6367C78.4062 17.832 78.3398 17.9844 78.207 18.0938C78.082 18.2109 77.9492 18.2695 77.8086 18.2695H77.7383C77.418 18.2305 77.1016 18.2031 76.7891 18.1875C76.4844 18.1719 76.1836 18.1641 75.8867 18.1641C75.3477 18.1641 74.8125 18.1914 74.2812 18.2461C73.7578 18.3008 73.2383 18.3867 72.7227 18.5039H72.5938C72.4297 18.5039 72.2852 18.4414 72.1602 18.3164C72.0352 18.1992 71.9727 18.0625 71.9727 17.9062V17.8828L72.043 15.7383C71.5508 16.6367 70.9766 17.3242 70.3203 17.8008C69.6641 18.2695 68.9336 18.5039 68.1289 18.5039C67.6211 18.5039 67.1719 18.4219 66.7812 18.2578C66.3984 18.0938 66.0586 17.875 65.7617 17.6016C65.4727 17.3203 65.2266 17 65.0234 16.6406C64.8281 16.2734 64.668 15.8906 64.543 15.4922C64.4258 15.0859 64.3398 14.6758 64.2852 14.2617C64.2305 13.8477 64.2031 13.4531 64.2031 13.0781C64.2031 12.0547 64.3008 11.0508 64.4961 10.0664C64.6992 9.08203 65 8.15234 65.3984 7.27734L63.2891 7.21875C63.1172 7.20312 62.9727 7.14062 62.8555 7.03125C62.7461 6.91406 62.6914 6.76953 62.6914 6.59766C62.6914 6.44141 62.75 6.30469 62.8672 6.1875C62.9844 6.0625 63.1328 6 63.3125 6L66.4062 6.07031C66.5781 6.09375 66.7188 6.16406 66.8281 6.28125C66.9453 6.39062 67.0039 6.52734 67.0039 6.69141C67.0039 6.75391 66.9922 6.8125 66.9688 6.86719C66.9531 6.91406 66.9336 6.96094 66.9102 7.00781C66.7617 7.15625 66.6211 7.37891 66.4883 7.67578C66.3555 7.97266 66.2344 8.3125 66.125 8.69531C66.0156 9.07031 65.918 9.47266 65.832 9.90234C65.7461 10.3242 65.6719 10.7383 65.6094 11.1445C65.5469 11.543 65.5 11.9141 65.4688 12.2578C65.4375 12.6016 65.4219 12.8828 65.4219 13.1016C65.4219 13.5859 65.4609 14.0781 65.5391 14.5781C65.625 15.0703 65.7695 15.5195 65.9727 15.9258C66.1758 16.3242 66.4492 16.6523 66.793 16.9102C67.1367 17.1602 67.5742 17.2852 68.1055 17.2852C68.582 17.2852 69.0352 17.1484 69.4648 16.875C69.8945 16.5938 70.2812 16.1953 70.625 15.6797C70.9766 15.1641 71.2812 14.5352 71.5391 13.793C71.8047 13.0508 72.0156 12.2148 72.1719 11.2852L72.3125 6.57422C72.3125 6.40234 72.3789 6.26562 72.5117 6.16406C72.6445 6.05469 72.7852 6 72.9336 6H73.0039C73.2695 6.03906 73.5391 6.06641 73.8125 6.08203C74.0859 6.08984 74.3711 6.09375 74.668 6.09375C75.1445 6.09375 75.6406 6.07031 76.1562 6.02344C76.6797 5.97656 77.2227 5.89844 77.7852 5.78906C77.8008 5.78906 77.8164 5.78516 77.832 5.77734C77.8477 5.76953 77.8633 5.76562 77.8789 5.76562C78.0586 5.76562 78.207 5.83203 78.3242 5.96484C78.4414 6.08984 78.5 6.23047 78.5 6.38672Z" fill="#222222"/>
</g>
<defs>
<filter id="filter0_d_1_8" x="0.449219" y="0.480469" width="82.0508" height="32.3867" filterUnits="userSpaceOnUse" color-interpolation-filters="sRGB">
<feFlood flood-opacity="0" result="BackgroundImageFix"/>
<feColorMatrix in="SourceAlpha" type="matrix" values="0 0 0 0 0 0 0 0 0 0 0 0 0 0 0 0 0 0 127 0" result="hardAlpha"/>
<feOffset dy="4"/>
<feGaussianBlur stdDeviation="2"/>
<feComposite in2="hardAlpha" operator="out"/>
<feColorMatrix type="matrix" values="0 0 0 0 0 0 0 0 0 0 0 0 0 0 0 0 0 0 0.25 0"/>
<feBlend mode="normal" in2="BackgroundImageFix" result="effect1_dropShadow_1_8"/>
<feBlend mode="normal" in="SourceGraphic" in2="effect1_dropShadow_1_8" result="shape"/>
</filter>
</defs>
</svg>
